<?xml version="1.0" encoding="utf-8"?>
<!-- Generator: Adobe Illustrator 26.0.3, SVG Export Plug-In . SVG Version: 6.00 Build 0)  -->
<svg version="1.0" id="Layer_1" xmlns="http://www.w3.org/2000/svg" xmlns:xlink="http://www.w3.org/1999/xlink" x="0px" y="0px"
	 viewBox="100 10 84 214" style="enable-background:new 0 0 0 0;" xml:space="preserve">
<style type="text/css">
	.st0{fill:#FCB823;}
	.st1{fill:#898B8E;}
</style>
<path class="st0" d="M105.2,172v-70.5c0-24.1,25.1-29.2,43.1-22.3v13.4c-12.4-5.1-26.4-3.8-26.4,11.7H142v13.4h-20v54L105.2,172z"/>
<path class="st0" d="M185.1,93.9h12.4l2.5,10.4h15.5v13.4h-13.7v31.2c0,6.3,2.8,9.4,8.1,9.4h8.6v13.4h-16.7c-11.2,0-17-6.1-17-18
	V93.9H185.1z"/>
<rect x="155.1" y="104.3" class="st0" width="23" height="67.4"/>
<rect x="155.1" y="80" class="st0" width="17" height="13.9"/>
<path class="st0" d="M233,171.8c-24.9,39.2-76.8,50.8-116,26c-10.5-6.6-19.3-15.5-26-26c17.5,16.2,42.9,26.1,71,26.1
	C190.1,198.1,215.5,188,233,171.8"/>
<path class="st1" d="M105,58.4v-4.7c2.8,1.1,5.8,1.6,8.8,1.6c2.5,0,3.7-0.8,3.7-2.3c0-1.6-0.8-2.2-2.5-2.2h-4
	c-4.6,0-6.9-2.3-6.9-6.9s3.4-7,10-7c2.8-0.1,5.5,0.4,8.1,1.2v4.7c-2.6-1.1-5.4-1.6-8.2-1.6c-3.1,0-4.6,0.8-4.6,2.3
	c0,1.6,0.9,2.2,2.7,2.2h3.7c5,0,7.6,2.4,7.6,6.9s-3.3,7-9.6,7C110.7,59.6,107.8,59.2,105,58.4 M127.1,59.4V36.8h4.4l0.7,2.9
	c2.2-1.8,4.9-2.8,7.7-2.9c2.9,0,4.8,1,6,3.1c2.9-2.1,5.6-3.1,8.1-3.1c4.8,0,7.2,2.9,7.2,8.6v14h-5.7V45.2c0-2.5-1-3.8-3.1-3.8
	c-1.7,0-3.5,0.9-5.3,2.9v15.1h-5.7V45.2c0-2.6-1-3.8-3.1-3.8c-2.1,0.1-4.1,1.2-5.3,2.9v15.1L127.1,59.4z M165.4,52.4
	c0-4.7,3.3-6.9,9.8-6.9c1.7,0,3.5,0.1,5.2,0.4v-1.4c0-2-1.9-3-5.9-3c-2.5,0-4.9,0.3-7.3,1v-4.5c2.4-0.6,4.8-1,7.3-1
	c7.7,0,11.6,2.5,11.6,7.4v15.1h-2.9l-2.5-1.6c-1.9,1-4.1,1.6-6.3,1.6C168.5,59.4,165.5,57.1,165.4,52.4L165.4,52.4z M180.4,50.2
	c-1.7-0.3-3.5-0.4-5.2-0.4c-2.7,0-4.2,0.9-4.2,2.6c0,1.7,1.2,2.6,3.4,2.6c2.1,0.1,4.2-0.6,5.9-1.8L180.4,50.2L180.4,50.2z
	 M191.8,59.4V36.8h4.4l0.7,2.9c1.6-1.8,3.9-2.8,6.3-2.9v4.6c-2.2,0-4.4,1.1-5.7,2.9v15.1H191.8z M206.6,33.2h4.2l0.9,3.6h5.3v4.6
	h-4.6v10.4c0,2.1,0.9,3.1,2.7,3.1h1.8v4.6h-4.7c-3.8,0-5.7-2.1-5.7-6.1L206.6,33.2L206.6,33.2z"/>
</svg>
